<?xml version="1.0" standalone="no"?>
<!DOCTYPE svg PUBLIC "-//W3C//DTD SVG 20010904//EN"
 "http://www.w3.org/TR/2001/REC-SVG-20010904/DTD/svg10.dtd">
<svg version="1.0" xmlns="http://www.w3.org/2000/svg"
 width="728.000000pt" height="728.000000pt" viewBox="0 0 728.000000 728.000000"
 preserveAspectRatio="xMidYMid meet">
<metadata>
Created by potrace 1.15, written by Peter Selinger 2001-2017
</metadata>
<g transform="translate(0.000000,728.000000) scale(0.100000,-0.100000)"
fill="#000000" stroke="none">
<path d="M3365 5809 c-593 -62 -1155 -331 -1580 -754 -467 -466 -742 -1074
-775 -1715 -13 -253 16 -1470 41 -1740 8 -82 20 -142 44 -210 110 -320 218
-477 461 -668 l29 -23 -30 19 c-58 37 -57 37 -53 1 l3 -34 74 -5 75 -5 -3 -63
c-2 -63 -2 -63 19 -52 15 8 20 8 16 1 -7 -10 14 -15 66 -15 9 0 15 -3 12 -8
-3 -4 -2 -8 3 -8 21 1 31 18 28 48 -3 38 2 39 95 14 52 -14 65 -21 65 -37 0
-18 8 -20 73 -23 l72 -3 0 30 c0 20 7 34 20 41 15 8 20 8 20 -2 0 -9 16 -13
46 -14 44 -2 68 -16 61 -39 -2 -5 -35 -12 -73 -15 -67 -5 -71 -7 -65 -39 0 -5
33 -11 71 -13 l70 -3 0 28 0 27 75 0 c43 0 75 4 75 10 0 6 18 10 40 10 22 0
40 -4 40 -10 0 -5 -18 -10 -40 -10 -39 0 -40 -1 -40 -34 0 -38 10 -43 100 -48
l45 -3 3 38 3 38 72 -3 72 -3 5 -40 5 -40 73 -3 c71 -3 72 -2 72 22 0 49 7 54
58 44 26 -4 56 -7 67 -6 13 2 21 -4 23 -17 9 -62 6 -60 79 -60 l68 0 5 35 c4
31 8 35 33 34 15 -1 47 -2 72 -3 42 -1 45 -3 46 -28 0 -16 4 -37 9 -48 l9 -20
1 20 c1 11 3 16 6 10 2 -6 30 -9 64 -7 l60 4 0 33 c0 27 4 33 25 37 14 3 28 1
31 -3 3 -5 25 -9 50 -9 42 0 44 -1 44 -30 0 -28 2 -30 43 -32 56 -2 60 -2 76
-12 18 -11 31 10 31 51 0 31 0 31 60 35 36 2 60 -1 60 -7 0 -5 4 -3 9 4 8 12
11 8 16 -15 4 -16 8 -35 11 -41 2 -9 26 -13 73 -13 l70 0 3 36 3 36 68 5 c71
5 69 5 81 -47 5 -24 7 -25 76 -22 69 4 70 4 70 32 0 36 11 65 19 51 5 -7 25
-6 63 3 63 15 68 11 68 -44 0 -27 1 -28 48 -25 26 1 59 3 74 4 23 1 27 6 30
38 l3 38 73 3 72 3 0 -36 0 -36 63 6 c84 9 87 10 87 45 l0 30 -75 0 c-43 0
-75 4 -75 10 0 9 71 16 109 10 8 -1 18 4 22 12 7 10 11 7 15 -10 6 -20 12 -22
80 -22 l74 0 0 28 c0 15 5 34 10 42 9 13 11 13 20 0 8 -13 10 -12 11 5 2 26 2
27 -6 50 -7 18 -6 18 9 -2 9 -12 38 -36 65 -53 37 -24 47 -37 44 -51 -5 -17 1
-19 58 -19 70 0 86 6 86 32 0 13 -7 16 -31 12 -36 -5 -43 -7 119 49 108 38
237 103 297 149 21 17 43 26 49 22 7 -4 9 -3 6 3 -3 5 23 38 59 74 36 35 87
94 115 130 96 129 187 359 209 524 23 174 49 958 52 1530 1 399 -8 490 -82
800 -85 353 -301 763 -559 1060 -110 126 -329 325 -448 409 -29 20 -74 51
-100 69 -197 136 -510 275 -768 342 -123 32 -289 62 -414 75 -119 12 -419 11
-536 -1z m-786 -769 c8 0 9 -5 1 -19 -13 -26 -13 -44 1 -35 7 4 9 -1 7 -12 -2
-11 -10 -18 -16 -16 -7 1 -12 -6 -12 -17 0 -10 -7 -24 -15 -31 -8 -7 -15 -20
-15 -30 0 -9 -11 -29 -25 -44 -14 -15 -25 -34 -25 -42 0 -7 -4 -14 -10 -14
-14 0 -50 -42 -44 -52 3 -4 1 -8 -4 -8 -11 0 -72 -57 -72 -68 0 -9 -32 -38
-42 -37 -15 0 -68 -47 -63 -56 4 -5 2 -8 -3 -7 -5 2 -28 -14 -50 -34 -23 -21
-44 -38 -48 -38 -4 0 -17 -8 -28 -19 -12 -10 -42 -24 -68 -31 -27 -7 -48 -17
-48 -21 0 -5 -9 -9 -20 -9 -17 0 -20 7 -20 49 0 51 33 140 56 154 8 4 14 14
14 21 0 7 20 34 45 60 25 27 45 52 45 56 0 5 9 12 20 15 11 3 20 15 20 26 0
12 7 19 20 19 11 0 20 7 20 15 0 8 4 15 9 15 7 0 61 47 142 125 15 14 32 25
38 25 6 0 11 5 11 10 0 6 9 10 20 10 12 0 25 10 32 25 6 14 17 24 24 21 8 -3
26 1 41 9 25 13 29 13 39 0 6 -8 16 -15 23 -15z m1231 -790 c88 -29 185 -89
247 -152 87 -90 176 -257 155 -294 -9 -16 -11 -15 -21 4 -6 12 -9 34 -6 49 l5
28 -10 -26 c-9 -21 -6 -37 10 -78 31 -80 24 -83 -14 -6 -78 163 -241 247 -417
217 -39 -7 -87 -21 -108 -31 -67 -35 -138 -108 -173 -179 -31 -63 -33 -73 -33
-172 0 -92 3 -112 26 -160 54 -114 156 -194 284 -221 60 -12 60 -13 24 -19
-20 -4 -52 -14 -71 -23 -69 -33 -230 -69 -307 -70 l-76 0 50 -23 c28 -13 39
-21 25 -18 -90 21 -239 138 -304 239 -80 123 -117 285 -97 419 39 265 228 473
482 531 89 20 244 13 329 -15z m1560 16 c186 -40 347 -168 430 -341 42 -89 47
-105 29 -105 -6 0 -8 7 -5 16 4 10 2 13 -6 8 -6 -4 -9 -3 -5 2 3 5 0 20 -8 33
-12 24 -12 24 -11 -8 0 -17 4 -31 9 -31 4 0 7 -5 7 -11 0 -5 -4 -7 -10 -4 -13
8 -13 3 4 -31 8 -16 17 -42 21 -59 3 -16 -4 -5 -16 25 -32 79 -135 181 -213
209 -206 76 -408 -4 -504 -199 -24 -49 -27 -66 -27 -160 0 -96 3 -110 30 -165
61 -123 182 -207 319 -222 l71 -7 -60 -6 c-33 -3 -61 -2 -63 2 -6 14 -20 8
-25 -11 -4 -18 -22 -25 -188 -73 -19 -5 -62 -11 -95 -13 -32 -2 -66 -4 -74 -4
-8 -1 13 -14 48 -28 79 -32 76 -39 -3 -11 -53 19 -160 81 -206 120 -70 59
-156 204 -185 310 -18 70 -18 239 1 311 83 320 411 522 735 453z m-2522 -2843
c77 -51 178 -179 316 -400 31 -51 31 -53 7 -46 -14 3 -21 -3 -29 -24 -6 -15
-11 -23 -11 -17 -1 7 -18 8 -48 5 -71 -9 -78 -8 -81 17 -3 21 -8 22 -78 22
l-74 0 0 -28 c0 -27 -2 -29 -52 -31 -29 -1 -62 -3 -73 -4 -14 -1 -21 6 -25 28
-5 30 -5 30 -75 30 l-70 0 -5 -40 c-4 -31 -9 -40 -25 -41 -11 0 -32 -4 -47 -7
-83 -20 -78 -22 -78 32 l0 48 -39 -1 c-47 -2 -47 -2 26 124 145 250 234 350
327 370 46 9 75 1 134 -37z m1773 8 c54 -35 92 -75 156 -166 47 -67 193 -326
193 -342 0 -4 -5 -1 -10 7 -7 11 -10 6 -10 -20 0 -36 -20 -83 -20 -48 0 11 -6
15 -20 11 -11 -3 -40 -2 -65 1 l-45 7 0 45 c0 49 10 44 -102 49 l-48 1 0 -37
c0 -30 -3 -36 -17 -33 -10 2 -43 5 -73 7 -52 3 -55 5 -60 33 -5 29 -6 29 -75
29 -65 0 -70 -2 -73 -23 -3 -21 -7 -22 -73 -20 -64 3 -70 5 -76 26 -5 22 -10
23 -59 20 -30 -1 -54 0 -54 3 0 3 40 66 88 140 201 307 320 390 443 310z"/>
</g>
</svg>
