<?xml version="1.0" standalone="no"?>
<!DOCTYPE svg PUBLIC "-//W3C//DTD SVG 20010904//EN"
 "http://www.w3.org/TR/2001/REC-SVG-20010904/DTD/svg10.dtd">
<svg version="1.0" xmlns="http://www.w3.org/2000/svg"
 width="256.000000pt" height="256.000000pt" viewBox="0 0 256.000000 256.000000"
 preserveAspectRatio="xMidYMid meet">
<metadata>
Created by potrace 1.15, written by Peter Selinger 2001-2017
</metadata>
<g transform="translate(0.000000,256.000000) scale(0.100000,-0.100000)"
fill="#000000" stroke="none">
<path d="M1142 2460 c-456 -64 -824 -401 -919 -840 -16 -78 -18 -143 -18 -745
0 -717 0 -722 55 -777 36 -35 84 -37 126 -5 16 12 65 59 108 104 87 91 149
129 188 114 26 -10 68 -54 139 -147 70 -91 146 -117 217 -74 17 11 61 60 97
109 72 98 114 127 167 116 36 -8 104 -68 155 -138 72 -97 157 -132 231 -93 30
16 98 85 157 159 21 27 51 55 67 63 42 22 83 0 154 -82 111 -129 140 -154 182
-154 53 0 79 22 97 82 13 44 15 149 15 712 0 606 -2 668 -19 751 -86 417 -415
742 -836 830 -96 20 -276 27 -363 15z m343 -25 c390 -73 720 -379 820 -761 32
-124 37 -234 33 -859 -3 -597 -4 -622 -23 -660 -21 -42 -45 -52 -90 -41 -13 3
-60 49 -105 102 -92 107 -128 134 -182 134 -33 0 -44 -7 -90 -57 -170 -183
-170 -183 -226 -183 -49 0 -55 3 -100 48 -26 26 -69 74 -95 105 -56 67 -95 90
-150 89 -51 -1 -94 -31 -143 -101 -21 -31 -58 -75 -80 -98 -35 -36 -48 -43
-80 -43 -56 0 -94 28 -163 118 -75 99 -103 122 -149 122 -53 0 -107 -38 -209
-145 -87 -92 -93 -96 -129 -93 -47 4 -70 34 -84 110 -7 38 -10 284 -8 715 4
651 4 659 27 738 86 301 282 538 554 670 215 104 437 134 672 90z"/>
<path d="M1094 1601 c-31 -19 -64 -74 -64 -108 0 -10 9 -36 19 -59 40 -89 157
-98 220 -18 26 33 28 104 5 144 -35 59 -119 78 -180 41z"/>
<path d="M1969 1597 c-139 -94 -5 -304 139 -217 59 36 78 118 42 177 -38 63
-120 81 -181 40z"/>
</g>
</svg>
